<svg xmlns="http://www.w3.org/2000/svg" xmlns:xlink="http://www.w3.org/1999/xlink" preserveAspectRatio="xMidYMid" width="80" height="34" viewBox="0 0 40 17">
  <defs>
    <style>
      .cls-1 {
        fill: #000;
        fill-rule: evenodd;
      }
    </style>
  </defs>
  <path d="M37.000,11.000 C37.083,10.138 36.981,8.892 37.000,8.000 C37.019,7.108 36.694,5.184 37.000,5.000 C37.879,4.472 39.894,5.150 40.000,8.000 C40.102,10.738 36.917,11.862 37.000,11.000 ZM36.012,13.544 C36.064,14.285 36.058,15.337 35.361,16.055 C34.884,16.547 33.929,17.000 33.000,17.000 C30.005,16.939 27.674,16.763 24.941,16.883 C22.835,16.971 20.581,17.010 17.624,17.010 L16.914,17.010 C13.757,17.010 9.823,16.999 6.088,16.863 C5.863,16.853 5.633,16.853 5.406,16.853 L3.506,16.871 C3.255,16.883 3.284,17.000 3.000,17.000 C2.240,17.000 1.453,16.813 1.113,16.627 C-0.017,16.007 -0.057,14.825 -0.000,14.000 L0.154,13.555 C0.261,11.381 0.178,9.154 0.098,6.999 L0.061,5.985 C0.040,5.337 0.019,4.685 0.004,4.037 C-0.048,1.752 0.837,0.117 4.000,-0.000 C5.022,-0.041 5.765,0.068 6.777,0.090 C9.905,0.149 12.931,0.079 15.893,0.040 C19.221,0.010 22.676,0.029 26.029,0.049 L27.036,0.049 C28.309,0.049 29.583,0.040 30.852,0.021 L33.255,-0.010 C34.328,-0.010 35.779,0.679 36.000,3.000 C36.185,4.920 35.997,6.644 35.956,8.525 C35.926,10.168 35.889,11.882 36.012,13.544 ZM35.001,14.021 C34.868,12.165 34.901,10.299 34.937,8.494 C34.974,6.532 35.012,4.508 34.837,2.547 C34.693,1.006 34.136,1.006 33.800,1.006 L31.306,1.039 C29.985,1.060 28.660,1.071 27.337,1.071 L26.284,1.071 C22.818,1.039 19.258,0.997 15.824,1.060 C13.310,1.101 10.797,1.134 8.282,1.134 L8.262,1.134 C7.522,1.134 6.932,1.122 6.342,1.113 C5.320,1.092 4.300,1.071 3.280,1.113 C1.329,1.175 0.941,1.620 0.984,3.674 C1.005,4.371 1.026,5.046 1.049,5.752 L1.090,6.838 C1.170,9.171 1.261,11.596 1.144,13.979 L1.122,14.285 C1.096,14.727 1.625,15.170 1.903,15.317 C1.907,15.317 1.500,15.879 2.131,15.879 C2.397,15.879 2.674,15.867 2.918,15.846 C3.131,15.846 3.317,15.837 3.466,15.837 L4.949,15.825 C5.203,15.825 5.464,15.825 5.719,15.846 C9.275,15.973 12.725,15.983 16.860,15.995 L17.595,16.003 C20.628,16.003 22.941,15.962 25.093,15.867 C27.953,15.730 30.834,15.709 33.704,15.763 C34.258,15.763 34.587,15.668 34.757,15.487 C34.974,15.267 35.055,14.781 35.001,14.021 Z" class="cls-1"/>
</svg>
